FILE "(PSX) PlayStation Underground 3.4 (Demo) (CD2) (SCUS-94447).bin" BINARY
  TRACK 01 MODE2/2352
    INDEX 01 00:00:00
  TRACK 02 AUDIO
    PREGAP 00:02:00
    INDEX 01 66:43:32
  TRACK 03 AUDIO
    INDEX 00 70:13:33
    INDEX 01 70:15:33
